Coordinates
version=1
nRows=24
nColumns=24
inDegrees=yes

Units are S.I. units (second, meters, Newtons, ...)
Angles are in degrees.

endheader
time	pelvis_tilt	pelvis_list	pelvis_rotation	pelvis_tx	pelvis_ty	pelvis_tz	hip_flexion_r	hip_adduction_r	hip_rotation_r	knee_angle_r	ankle_angle_r	subtalar_angle_r	mtp_angle_r	hip_flexion_l	hip_adduction_l	hip_rotation_l	knee_angle_l	ankle_angle_l	subtalar_angle_l	mtp_angle_l	lumbar_extension	lumbar_bending	lumbar_rotation
      6.36000000	      7.54396596	      1.27754164	     -3.14538156	      2.23094051	      0.91296418	     -0.23660162	     12.17769991	     -1.30765089	     -2.69205665	    -64.44778416	      8.36675702	      0.87439917	      0.00000000	     -4.30169556	      7.61659989	      6.04735585	     -6.40838770	     10.43449245	     -6.49272200	      0.00000000	    -22.93239934	     -0.92422070	     -3.10694726
      6.37000000	      7.40242494	      1.15553724	     -2.54106212	      2.24103527	      0.91325359	     -0.23741567	     13.39089358	     -1.24783354	     -3.17212481	    -63.26686822	      8.94246761	     -0.46914648	      0.00000000	     -5.24568136	      7.45854789	      7.20843540	     -5.74640196	     10.48261343	     -7.09228067	      0.00000000	    -22.82590377	     -0.59426393	     -3.24981994
      6.38000000	      7.19241953	      1.04569778	     -1.95292825	      2.25102368	      0.91333837	     -0.23808061	     14.58845877	     -1.16765788	     -3.57048118	    -61.78708583	      9.28212852	     -2.30220999	      0.00000000	     -5.95544908	      7.27644567	      7.81639357	     -5.34457198	     10.84874371	     -6.95862568	      0.00000000	    -22.67134604	     -0.30060906	     -3.36954633
      6.39000000	      7.03907784	      0.94074628	     -1.39800815	      2.26092695	      0.91336258	     -0.23860484	     15.61156314	     -1.06776380	     -3.87096872	    -59.98349072	      9.42029333	     -4.44108204	      0.00000000	     -6.70064492	      7.09097506	      8.51466342	     -4.97876530	     11.18683983	     -7.08352372	      0.00000000	    -22.61969327	     -0.03836588	     -3.42624448
      6.40000000	      6.91262924	      0.82537443	     -0.82920246	      2.27076857	      0.91330936	     -0.23907407	     16.47418090	     -0.95544016	     -4.13116138	    -57.85090005	      9.37869046	     -6.63887990	      0.00000000	     -7.51407409	      6.87554928	      9.56382170	     -4.53696622	     11.33075234	     -7.58184661	      0.00000000	    -22.63225886	      0.24132501	     -3.50165141
      6.41000000	      6.75661063	      0.73682129	     -0.23352387	      2.28048755	      0.91311159	     -0.23949175	     17.24068677	     -0.87837770	     -4.35790844	    -55.40187011	      9.15392380	     -8.88689349	      0.00000000	     -8.13250259	      6.67252200	     10.17225573	     -4.36655560	     11.69938619	     -7.49907545	      0.00000000	    -22.64957562	      0.50026782	     -3.60852215
      6.42000000	      6.66342935	      0.65525029	      0.28790664	      2.29017148	      0.91285555	     -0.23973363	     17.79693322	     -0.76915751	     -4.41666621	    -52.62144124	      8.78181148	    -11.07353229	      0.00000000	     -8.83764188	      6.47102305	     10.84135959	     -4.15093864	     12.07445772	     -7.63660195	      0.00000000	    -22.76872167	      0.72788215	     -3.69213945
      6.43000000	      6.54989119	      0.59272729	      0.80551399	      2.29984556	      0.91243402	     -0.23993149	     18.22867183	     -0.69056424	     -4.42416229	    -49.53542399	      8.29594171	    -13.00627440	      0.00000000	     -9.56907489	      6.27446231	     11.82341174	     -3.84886158	     12.17229033	     -8.18204408	      0.00000000	    -22.87945668	      0.94466056	     -3.77104741
      6.44000000	      6.51519261	      0.60690530	      1.29760735	      2.30949815	      0.91197332	     -0.24004713	     18.43312379	     -0.69882372	     -4.35825562	    -46.16779008	      7.79117310	    -14.61992318	      0.00000000	    -10.29313498	      6.15346896	     12.36256696	     -3.70941845	     12.53069585	     -8.13892166	      0.00000000	    -23.11356972	      1.07421238	     -3.88368662
      6.45000000	      6.46028860	      0.67816286	      1.72866569	      2.31921521	      0.91130528	     -0.24004797	     18.53341182	     -0.75729921	     -4.18364734	    -42.56638657	      7.27150646	    -15.83000560	      0.00000000	    -11.03016007	      6.08694906	     12.93370711	     -3.51460089	     12.84594890	     -8.21394267	      0.00000000	    -23.32474968	      1.13376760	     -3.96404227
      6.46000000	      6.41429760	      0.83558388	      2.11053209	      2.32901632	      0.91045548	     -0.23996406	     18.51648532	     -0.90954504	     -3.93268338	    -38.78981565	      6.84218015	    -16.49295811	      0.00000000	    -11.80156739	      6.10576237	     13.52979268	     -3.29625783	     13.09136087	     -8.38124529	      0.00000000	    -23.55155567	      1.09143766	     -4.01979943
      6.47000000	      6.35165463	      1.08418287	      2.43266885	      2.33895050	      0.90936993	     -0.23976447	     18.43684464	     -1.14712456	     -3.57054487	    -34.91022985	      6.50902062	    -16.56752825	      0.00000000	    -12.62014555	      6.21119635	     14.27710813	     -2.98761179	     13.22089264	     -8.87577643	      0.00000000	    -23.74985806	      0.93493203	     -4.07887511
      6.48000000	      6.29355193	      1.45697240	      2.77684537	      2.34901835	      0.90813100	     -0.23958691	     18.30160731	     -1.56816508	     -3.31344570	    -31.01685521	      6.40655034	    -15.79320179	      0.00000000	    -13.42229100	      6.43125762	     14.77421258	     -2.74638401	     13.44036715	     -8.88563221	      0.00000000	    -23.95014144	      0.66081549	     -4.22774023
      6.49000000	      6.27243909	      1.90075841	      3.05798447	      2.35926690	      0.90676861	     -0.23926930	     18.09148553	     -2.03376725	     -2.92820081	    -27.14276149	      6.47325647	    -14.43127756	      0.00000000	    -14.31471582	      6.71271319	     15.25804954	     -2.44925137	     13.60274171	     -8.96507893	      0.00000000	    -24.18485541	      0.29052260	     -4.32613395
      6.50000000	      6.16376998	      2.43644674	      3.32555038	      2.36966898	      0.90513927	     -0.23893264	     18.00607799	     -2.62615610	     -2.60862461	    -23.43804297	      6.90186745	    -12.16947440	      0.00000000	    -15.16702641	      7.07931483	     15.94195535	     -2.09639878	     13.62698486	     -9.29631567	      0.00000000	    -24.30703479	     -0.18167908	     -4.42224537
      6.51000000	      6.12292436	      2.97669133	      3.59086450	      2.38023817	      0.90353588	     -0.23853084	     17.80909095	     -3.18891652	     -2.10832971	    -19.81183822	      7.25248439	     -9.71319640	      0.00000000	    -16.10039978	      7.42669125	     16.49827316	     -1.75720900	     13.67193511	     -9.46924881	      0.00000000	    -24.50585400	     -0.64869969	     -4.53149969
      6.52000000	      6.06315800	      3.51599865	      3.84099545	      2.39096190	      0.90186811	     -0.23806693	     17.61750103	     -3.73287444	     -1.41599049	    -16.33495805	      7.61531108	     -7.08652394	      0.00000000	    -17.01374803	      7.76394561	     16.97462281	     -1.44507028	     13.66874315	     -9.58524987	      0.00000000	    -24.67357571	     -1.11959324	     -4.61496137
      6.53000000	      6.02073166	      4.02087947	      4.11460747	      2.40182075	      0.90022073	     -0.23760390	     17.34441021	     -4.23172682	     -0.43991721	    -12.97516671	      7.77587802	     -4.74532508	      0.00000000	    -17.92483071	      8.04899449	     17.40431841	     -1.19968234	     13.77079117	     -9.57842812	      0.00000000	    -24.85731187	     -1.53414956	     -4.70343193
      6.54000000	      5.94496260	      4.49963338	      4.37478311	      2.41282721	      0.89853239	     -0.23710435	     17.04545839	     -4.70129277	      0.92740253	     -9.77385797	      7.70428723	     -2.98316336	      0.00000000	    -18.76827596	      8.31044649	     17.68898593	     -1.03309920	     13.83624766	     -9.43498075	      0.00000000	    -24.98322266	     -1.92501540	     -4.74796038
      6.55000000	      5.86516096	      4.94296346	      4.68118015	      2.42394090	      0.89686677	     -0.23669366	     16.73627955	     -5.19009410	      2.21525169	     -6.86265876	      7.56244404	     -1.57053102	      0.00000000	    -19.56760784	      8.52440060	     18.00561187	     -0.96712700	     13.94922882	     -9.25739953	      0.00000000	    -25.09212960	     -2.24940141	     -4.82711704
      6.56000000	      5.81627828	      5.32464645	      5.00467278	      2.43516157	      0.89528672	     -0.23632388	     16.41072633	     -5.64437250	      3.31555423	     -4.32610252	      7.29503760	     -0.68812740	      0.00000000	    -20.34990290	      8.66876629	     18.28592957	     -1.00730607	     14.07549855	     -9.01848333	      0.00000000	    -25.22090950	     -2.48872321	     -4.90571488
      6.57000000	      5.71163097	      5.69198078	      5.31826201	      2.44645031	      0.89369569	     -0.23593448	     16.19273576	     -6.08267339	      4.34690639	     -2.25252299	      6.76613273	     -0.68722653	      0.00000000	    -20.97351678	      8.82479193	     18.37681447	     -1.24186566	     14.31758227	     -8.52478816	      0.00000000	    -25.27020203	     -2.72791298	     -4.96136757
      6.58000000	      5.62070004	      5.94475694	      5.65901543	      2.45780937	      0.89225827	     -0.23556961	     16.15710330	     -6.37309943	      4.25733864	     -0.93034351	      6.55632512	     -0.36726659	      0.00000000	    -21.56797552	      8.85112963	     18.63784605	     -1.54915723	     14.43193112	     -8.25069362	      0.00000000	    -25.31596568	     -2.83144026	     -5.00551754
      6.59000000	      5.64240269	      6.07854045	      5.93821181	      2.46928352	      0.89113563	     -0.23507084	     16.15785513	     -6.44565166	      3.42589951	     -0.30400554	      6.52691969	      0.02385756	      0.00000000	    -22.09251244	      8.79493616	     18.13959925	     -2.17034289	     14.87445183	     -7.11045445	      0.00000000	    -25.46219350	     -2.81268383	     -4.98968076
